<?xml version="1.0" encoding="UTF-8" standalone="no"?>
<!DOCTYPE svg PUBLIC "-//W3C//DTD SVG 1.1//EN"
 "http://www.w3.org/Graphics/SVG/1.1/DTD/svg11.dtd">
<!-- Generated by graphviz version 2.46.0 (20210119.1425)
 -->
<!-- Title: dependencies Pages: 1 -->
<svg width="1382pt" height="284pt"
 viewBox="0.00 0.00 1382.00 284.00" xmlns="http://www.w3.org/2000/svg" xmlns:xlink="http://www.w3.org/1999/xlink">
<g id="graph0" class="graph" transform="scale(1 1) rotate(0) translate(4 280)">
<title>dependencies</title>
<polygon fill="white" stroke="transparent" points="-4,4 -4,-280 1378,-280 1378,4 -4,4"/>
<text text-anchor="start" x="666.01" y="-42.4" font-family="sans-serif" font-weight="bold" font-size="14.00">Legend</text>
<polygon fill="#ffffb3" stroke="transparent" points="453,-10 453,-30 473,-30 473,-10 453,-10"/>
<text text-anchor="start" x="476.63" y="-15.4" font-family="sans-serif" font-size="14.00"> &#160;Declarations</text>
<polygon fill="#8dd3c7" stroke="transparent" points="566,-10 566,-30 586,-30 586,-10 566,-10"/>
<text text-anchor="start" x="589.73" y="-15.4" font-family="sans-serif" font-size="14.00"> &#160;Module</text>
<polygon fill="#80b1d3" stroke="transparent" points="652,-10 652,-30 672,-30 672,-10 652,-10"/>
<text text-anchor="start" x="675.78" y="-15.4" font-family="sans-serif" font-size="14.00"> &#160;Bootstrap</text>
<polygon fill="#fdb462" stroke="transparent" points="749,-10 749,-30 769,-30 769,-10 749,-10"/>
<text text-anchor="start" x="772.67" y="-15.4" font-family="sans-serif" font-size="14.00"> &#160;Providers</text>
<polygon fill="#fb8072" stroke="transparent" points="845,-10 845,-30 865,-30 865,-10 845,-10"/>
<text text-anchor="start" x="868.73" y="-15.4" font-family="sans-serif" font-size="14.00"> &#160;Exports</text>
<g id="clust1" class="cluster">
<title>cluster_PageModule</title>
<polygon fill="none" stroke="black" stroke-dasharray="1,5" points="8,-70 8,-268 1366,-268 1366,-70 8,-70"/>
</g>
<g id="clust2" class="cluster">
<title>cluster_PageModule_declarations</title>
<polygon fill="none" stroke="black" points="384,-78 384,-130 1358,-130 1358,-78 384,-78"/>
</g>
<g id="clust9" class="cluster">
<title>cluster_PageModule_imports</title>
<polygon fill="none" stroke="black" points="16,-78 16,-130 376,-130 376,-78 16,-78"/>
</g>
<g id="clust10" class="cluster">
<title>cluster_PageModule_exports</title>
<polygon fill="none" stroke="black" points="485,-208 485,-260 795,-260 795,-208 485,-208"/>
</g>
<!-- PageComponent -->
<g id="node1" class="node">
<title>PageComponent</title>
<polygon fill="#ffffb3" stroke="black" points="1350.05,-122 1241.95,-122 1241.95,-86 1350.05,-86 1350.05,-122"/>
<text text-anchor="middle" x="1296" y="-99.8" font-family="Times,serif" font-size="14.00">PageComponent</text>
</g>
<!-- PageModule -->
<g id="node7" class="node">
<title>PageModule</title>
<polygon fill="#8dd3c7" stroke="black" points="696.26,-187 693.26,-191 672.26,-191 669.26,-187 609.74,-187 609.74,-151 696.26,-151 696.26,-187"/>
<text text-anchor="middle" x="653" y="-164.8" font-family="Times,serif" font-size="14.00">PageModule</text>
</g>
<!-- PageComponent&#45;&gt;PageModule -->
<g id="edge1" class="edge">
<title>PageComponent&#45;&gt;PageModule</title>
<path fill="none" stroke="black" d="M1296,-122.01C1296,-144.49 1296,-180 1296,-180 1296,-180 706.44,-180 706.44,-180"/>
<polygon fill="black" stroke="black" points="706.44,-176.5 696.44,-180 706.44,-183.5 706.44,-176.5"/>
</g>
<!-- PageFooterComponent -->
<g id="node2" class="node">
<title>PageFooterComponent</title>
<polygon fill="#ffffb3" stroke="black" points="1223.59,-122 1078.41,-122 1078.41,-86 1223.59,-86 1223.59,-122"/>
<text text-anchor="middle" x="1151" y="-99.8" font-family="Times,serif" font-size="14.00">PageFooterComponent</text>
</g>
<!-- PageFooterComponent&#45;&gt;PageModule -->
<g id="edge2" class="edge">
<title>PageFooterComponent&#45;&gt;PageModule</title>
<path fill="none" stroke="black" d="M1151,-122.13C1151,-142.57 1151,-173 1151,-173 1151,-173 706.32,-173 706.32,-173"/>
<polygon fill="black" stroke="black" points="706.32,-169.5 696.32,-173 706.32,-176.5 706.32,-169.5"/>
</g>
<!-- PageHeaderComponent -->
<g id="node3" class="node">
<title>PageHeaderComponent</title>
<polygon fill="#ffffb3" stroke="black" points="1060.46,-122 911.54,-122 911.54,-86 1060.46,-86 1060.46,-122"/>
<text text-anchor="middle" x="986" y="-99.8" font-family="Times,serif" font-size="14.00">PageHeaderComponent</text>
</g>
<!-- PageHeaderComponent&#45;&gt;PageModule -->
<g id="edge3" class="edge">
<title>PageHeaderComponent&#45;&gt;PageModule</title>
<path fill="none" stroke="black" d="M986,-122.27C986,-140.56 986,-166 986,-166 986,-166 706.53,-166 706.53,-166"/>
<polygon fill="black" stroke="black" points="706.53,-162.5 696.53,-166 706.53,-169.5 706.53,-162.5"/>
</g>
<!-- PageLoginComponent -->
<g id="node4" class="node">
<title>PageLoginComponent</title>
<polygon fill="#ffffb3" stroke="black" points="893.99,-122 752.01,-122 752.01,-86 893.99,-86 893.99,-122"/>
<text text-anchor="middle" x="823" y="-99.8" font-family="Times,serif" font-size="14.00">PageLoginComponent</text>
</g>
<!-- PageLoginComponent&#45;&gt;PageModule -->
<g id="edge4" class="edge">
<title>PageLoginComponent&#45;&gt;PageModule</title>
<path fill="none" stroke="black" d="M769.51,-122.01C769.51,-138.05 769.51,-159 769.51,-159 769.51,-159 706.39,-159 706.39,-159"/>
<polygon fill="black" stroke="black" points="706.39,-155.5 696.39,-159 706.39,-162.5 706.39,-155.5"/>
</g>
<!-- PageMentionsComponent -->
<g id="node5" class="node">
<title>PageMentionsComponent</title>
<polygon fill="#ffffb3" stroke="black" points="733.93,-122 572.07,-122 572.07,-86 733.93,-86 733.93,-122"/>
<text text-anchor="middle" x="653" y="-99.8" font-family="Times,serif" font-size="14.00">PageMentionsComponent</text>
</g>
<!-- PageMentionsComponent&#45;&gt;PageModule -->
<g id="edge5" class="edge">
<title>PageMentionsComponent&#45;&gt;PageModule</title>
<path fill="none" stroke="black" d="M653,-122.11C653,-122.11 653,-140.99 653,-140.99"/>
<polygon fill="black" stroke="black" points="649.5,-140.99 653,-150.99 656.5,-140.99 649.5,-140.99"/>
</g>
<!-- PageMessagesComponent -->
<g id="node6" class="node">
<title>PageMessagesComponent</title>
<polygon fill="#ffffb3" stroke="black" points="554.47,-122 391.53,-122 391.53,-86 554.47,-86 554.47,-122"/>
<text text-anchor="middle" x="473" y="-99.8" font-family="Times,serif" font-size="14.00">PageMessagesComponent</text>
</g>
<!-- PageMessagesComponent&#45;&gt;PageModule -->
<g id="edge6" class="edge">
<title>PageMessagesComponent&#45;&gt;PageModule</title>
<path fill="none" stroke="black" d="M523.51,-122.01C523.51,-138.05 523.51,-159 523.51,-159 523.51,-159 599.52,-159 599.52,-159"/>
<polygon fill="black" stroke="black" points="599.52,-162.5 609.52,-159 599.52,-155.5 599.52,-162.5"/>
</g>
<!-- PageComponent  -->
<g id="node11" class="node">
<title>PageComponent </title>
<polygon fill="#fb8072" stroke="black" points="787.04,-252 674.96,-252 674.96,-216 787.04,-216 787.04,-252"/>
<text text-anchor="middle" x="731" y="-229.8" font-family="Times,serif" font-size="14.00">PageComponent </text>
</g>
<!-- PageModule&#45;&gt;PageComponent  -->
<g id="edge10" class="edge">
<title>PageModule&#45;&gt;PageComponent </title>
<path fill="none" stroke="black" stroke-dasharray="5,2" d="M685.68,-187.11C685.68,-187.11 685.68,-205.99 685.68,-205.99"/>
<polygon fill="black" stroke="black" points="682.18,-205.99 685.68,-215.99 689.18,-205.99 682.18,-205.99"/>
</g>
<!-- PageMentionsComponent  -->
<g id="node12" class="node">
<title>PageMentionsComponent </title>
<polygon fill="#fb8072" stroke="black" points="657.43,-252 492.57,-252 492.57,-216 657.43,-216 657.43,-252"/>
<text text-anchor="middle" x="575" y="-229.8" font-family="Times,serif" font-size="14.00">PageMentionsComponent </text>
</g>
<!-- PageModule&#45;&gt;PageMentionsComponent  -->
<g id="edge11" class="edge">
<title>PageModule&#45;&gt;PageMentionsComponent </title>
<path fill="none" stroke="black" stroke-dasharray="5,2" d="M633.54,-187.11C633.54,-187.11 633.54,-205.99 633.54,-205.99"/>
<polygon fill="black" stroke="black" points="630.04,-205.99 633.54,-215.99 637.04,-205.99 630.04,-205.99"/>
</g>
<!-- LoginModule -->
<g id="node8" class="node">
<title>LoginModule</title>
<polygon fill="#8dd3c7" stroke="black" points="368.49,-122 365.49,-126 344.49,-126 341.49,-122 275.51,-122 275.51,-86 368.49,-86 368.49,-122"/>
<text text-anchor="middle" x="322" y="-99.8" font-family="Times,serif" font-size="14.00">LoginModule</text>
</g>
<!-- LoginModule&#45;&gt;PageModule -->
<g id="edge7" class="edge">
<title>LoginModule&#45;&gt;PageModule</title>
<path fill="none" stroke="black" d="M322,-122.27C322,-140.56 322,-166 322,-166 322,-166 599.73,-166 599.73,-166"/>
<polygon fill="black" stroke="black" points="599.73,-169.5 609.73,-166 599.73,-162.5 599.73,-169.5"/>
</g>
<!-- MentionModule -->
<g id="node9" class="node">
<title>MentionModule</title>
<polygon fill="#8dd3c7" stroke="black" points="257.49,-122 254.49,-126 233.49,-126 230.49,-122 150.51,-122 150.51,-86 257.49,-86 257.49,-122"/>
<text text-anchor="middle" x="204" y="-99.8" font-family="Times,serif" font-size="14.00">MentionModule</text>
</g>
<!-- MentionModule&#45;&gt;PageModule -->
<g id="edge8" class="edge">
<title>MentionModule&#45;&gt;PageModule</title>
<path fill="none" stroke="black" d="M204,-122.13C204,-142.57 204,-173 204,-173 204,-173 599.54,-173 599.54,-173"/>
<polygon fill="black" stroke="black" points="599.54,-176.5 609.54,-173 599.54,-169.5 599.54,-176.5"/>
</g>
<!-- MessageModule -->
<g id="node10" class="node">
<title>MessageModule</title>
<polygon fill="#8dd3c7" stroke="black" points="132.03,-122 129.03,-126 108.03,-126 105.03,-122 23.97,-122 23.97,-86 132.03,-86 132.03,-122"/>
<text text-anchor="middle" x="78" y="-99.8" font-family="Times,serif" font-size="14.00">MessageModule</text>
</g>
<!-- MessageModule&#45;&gt;PageModule -->
<g id="edge9" class="edge">
<title>MessageModule&#45;&gt;PageModule</title>
<path fill="none" stroke="black" d="M78,-122.01C78,-144.49 78,-180 78,-180 78,-180 599.31,-180 599.31,-180"/>
<polygon fill="black" stroke="black" points="599.31,-183.5 609.31,-180 599.31,-176.5 599.31,-183.5"/>
</g>
</g>
</svg>
