<?xml version="1.0" encoding="UTF-8" standalone="no"?>
<!DOCTYPE svg PUBLIC "-//W3C//DTD SVG 1.1//EN"
 "http://www.w3.org/Graphics/SVG/1.1/DTD/svg11.dtd">
<!-- Generated by graphviz version 2.46.0 (20210119.1425)
 -->
<!-- Title: dependencies Pages: 1 -->
<svg width="2585pt" height="428pt"
 viewBox="0.00 0.00 2585.00 428.00" xmlns="http://www.w3.org/2000/svg" xmlns:xlink="http://www.w3.org/1999/xlink">
<g id="graph0" class="graph" transform="scale(1 1) rotate(0) translate(4 424)">
<title>dependencies</title>
<polygon fill="white" stroke="transparent" points="-4,4 -4,-424 2581,-424 2581,4 -4,4"/>
<text text-anchor="start" x="1267.51" y="-42.4" font-family="sans-serif" font-weight="bold" font-size="14.00">Legend</text>
<polygon fill="#ffffb3" stroke="transparent" points="1054.5,-10 1054.5,-30 1074.5,-30 1074.5,-10 1054.5,-10"/>
<text text-anchor="start" x="1078.13" y="-15.4" font-family="sans-serif" font-size="14.00"> &#160;Declarations</text>
<polygon fill="#8dd3c7" stroke="transparent" points="1167.5,-10 1167.5,-30 1187.5,-30 1187.5,-10 1167.5,-10"/>
<text text-anchor="start" x="1191.23" y="-15.4" font-family="sans-serif" font-size="14.00"> &#160;Module</text>
<polygon fill="#80b1d3" stroke="transparent" points="1253.5,-10 1253.5,-30 1273.5,-30 1273.5,-10 1253.5,-10"/>
<text text-anchor="start" x="1277.28" y="-15.4" font-family="sans-serif" font-size="14.00"> &#160;Bootstrap</text>
<polygon fill="#fdb462" stroke="transparent" points="1350.5,-10 1350.5,-30 1370.5,-30 1370.5,-10 1350.5,-10"/>
<text text-anchor="start" x="1374.17" y="-15.4" font-family="sans-serif" font-size="14.00"> &#160;Providers</text>
<polygon fill="#fb8072" stroke="transparent" points="1446.5,-10 1446.5,-30 1466.5,-30 1466.5,-10 1446.5,-10"/>
<text text-anchor="start" x="1470.23" y="-15.4" font-family="sans-serif" font-size="14.00"> &#160;Exports</text>
<g id="clust1" class="cluster">
<title>cluster_AppModule</title>
<polygon fill="none" stroke="black" stroke-dasharray="1,5" points="872,-214 872,-412 1392,-412 1392,-214 872,-214"/>
</g>
<g id="clust2" class="cluster">
<title>cluster_AppModule_declarations</title>
<polygon fill="none" stroke="black" points="1262,-222 1262,-274 1384,-274 1384,-222 1262,-222"/>
</g>
<g id="clust4" class="cluster">
<title>cluster_AppModule_imports</title>
<polygon fill="none" stroke="black" points="880,-222 880,-274 1254,-274 1254,-222 880,-222"/>
</g>
<g id="clust6" class="cluster">
<title>cluster_AppModule_bootstrap</title>
<polygon fill="none" stroke="black" points="1063,-352 1063,-404 1187,-404 1187,-352 1063,-352"/>
</g>
<g id="clust14" class="cluster">
<title>cluster_LoginModule</title>
<polygon fill="none" stroke="black" stroke-dasharray="1,5" points="8,-70 8,-282 158,-282 158,-70 8,-70"/>
</g>
<g id="clust15" class="cluster">
<title>cluster_LoginModule_declarations</title>
<polygon fill="none" stroke="black" points="19,-78 19,-130 149,-130 149,-78 19,-78"/>
</g>
<g id="clust18" class="cluster">
<title>cluster_LoginModule_exports</title>
<polygon fill="none" stroke="black" points="16,-222 16,-274 150,-274 150,-222 16,-222"/>
</g>
<g id="clust21" class="cluster">
<title>cluster_MentionModule</title>
<polygon fill="none" stroke="black" stroke-dasharray="1,5" points="1482,-70 1482,-282 1646,-282 1646,-70 1482,-70"/>
</g>
<g id="clust22" class="cluster">
<title>cluster_MentionModule_declarations</title>
<polygon fill="none" stroke="black" points="1491,-78 1491,-130 1635,-130 1635,-78 1491,-78"/>
</g>
<g id="clust25" class="cluster">
<title>cluster_MentionModule_exports</title>
<polygon fill="none" stroke="black" points="1490,-222 1490,-274 1638,-274 1638,-222 1490,-222"/>
</g>
<g id="clust28" class="cluster">
<title>cluster_MessageModule</title>
<polygon fill="none" stroke="black" stroke-dasharray="1,5" points="1654,-70 1654,-282 2367,-282 2367,-70 1654,-70"/>
</g>
<g id="clust29" class="cluster">
<title>cluster_MessageModule_declarations</title>
<polygon fill="none" stroke="black" points="1662,-78 1662,-130 2359,-130 2359,-78 1662,-78"/>
</g>
<g id="clust35" class="cluster">
<title>cluster_MessageModule_exports</title>
<polygon fill="none" stroke="black" points="1830,-222 1830,-274 1980,-274 1980,-222 1830,-222"/>
</g>
<g id="clust38" class="cluster">
<title>cluster_PageModule</title>
<polygon fill="none" stroke="black" stroke-dasharray="1,5" points="166,-138 166,-206 1474,-206 1474,-138 166,-138"/>
</g>
<g id="clust39" class="cluster">
<title>cluster_PageModule_declarations</title>
<polygon fill="none" stroke="black" points="492,-146 492,-198 1466,-198 1466,-146 492,-146"/>
</g>
<g id="clust47" class="cluster">
<title>cluster_PageModule_exports</title>
<polygon fill="none" stroke="black" points="174,-146 174,-198 484,-198 484,-146 174,-146"/>
</g>
<g id="clust56" class="cluster">
<title>cluster_SharedModule</title>
<polygon fill="none" stroke="black" stroke-dasharray="1,5" points="2375,-70 2375,-282 2569,-282 2569,-70 2375,-70"/>
</g>
<g id="clust57" class="cluster">
<title>cluster_SharedModule_declarations</title>
<polygon fill="none" stroke="black" points="2385,-78 2385,-130 2559,-130 2559,-78 2385,-78"/>
</g>
<g id="clust60" class="cluster">
<title>cluster_SharedModule_exports</title>
<polygon fill="none" stroke="black" points="2383,-222 2383,-274 2561,-274 2561,-222 2383,-222"/>
</g>
<!-- AppComponent -->
<g id="node1" class="node">
<title>AppComponent</title>
<polygon fill="#ffffb3" stroke="black" points="1375.94,-266 1270.06,-266 1270.06,-230 1375.94,-230 1375.94,-266"/>
<text text-anchor="middle" x="1323" y="-243.8" font-family="Times,serif" font-size="14.00">AppComponent</text>
</g>
<!-- AppModule -->
<g id="node2" class="node">
<title>AppModule</title>
<polygon fill="#8dd3c7" stroke="black" points="1166.66,-331 1163.66,-335 1142.66,-335 1139.66,-331 1083.34,-331 1083.34,-295 1166.66,-295 1166.66,-331"/>
<text text-anchor="middle" x="1125" y="-308.8" font-family="Times,serif" font-size="14.00">AppModule</text>
</g>
<!-- AppComponent&#45;&gt;AppModule -->
<g id="edge1" class="edge">
<title>AppComponent&#45;&gt;AppModule</title>
<path fill="none" stroke="black" d="M1323,-266.11C1323,-285.34 1323,-313 1323,-313 1323,-313 1176.99,-313 1176.99,-313"/>
<polygon fill="black" stroke="black" points="1176.99,-309.5 1166.99,-313 1176.99,-316.5 1176.99,-309.5"/>
</g>
<!-- AppComponent  -->
<g id="node6" class="node">
<title>AppComponent </title>
<polygon fill="#80b1d3" stroke="black" points="1179.44,-396 1070.56,-396 1070.56,-360 1179.44,-360 1179.44,-396"/>
<text text-anchor="middle" x="1125" y="-373.8" font-family="Times,serif" font-size="14.00">AppComponent </text>
</g>
<!-- AppModule&#45;&gt;AppComponent  -->
<g id="edge5" class="edge">
<title>AppModule&#45;&gt;AppComponent </title>
<path fill="none" stroke="black" stroke-dasharray="1,5" d="M1125,-331.11C1125,-331.11 1125,-349.99 1125,-349.99"/>
<polygon fill="black" stroke="black" points="1121.5,-349.99 1125,-359.99 1128.5,-349.99 1121.5,-349.99"/>
</g>
<!-- AppRoutingModule -->
<g id="node3" class="node">
<title>AppRoutingModule</title>
<polygon fill="#8dd3c7" stroke="black" points="1121.27,-266 1118.27,-270 1097.27,-270 1094.27,-266 992.73,-266 992.73,-230 1121.27,-230 1121.27,-266"/>
<text text-anchor="middle" x="1057" y="-243.8" font-family="Times,serif" font-size="14.00">AppRoutingModule</text>
</g>
<!-- AppRoutingModule&#45;&gt;AppModule -->
<g id="edge2" class="edge">
<title>AppRoutingModule&#45;&gt;AppModule</title>
<path fill="none" stroke="black" d="M1102.28,-266.11C1102.28,-266.11 1102.28,-284.99 1102.28,-284.99"/>
<polygon fill="black" stroke="black" points="1098.78,-284.99 1102.28,-294.99 1105.78,-284.99 1098.78,-284.99"/>
</g>
<!-- PageModule -->
<g id="node4" class="node">
<title>PageModule</title>
<polygon fill="#8dd3c7" stroke="black" points="974.26,-266 971.26,-270 950.26,-270 947.26,-266 887.74,-266 887.74,-230 974.26,-230 974.26,-266"/>
<text text-anchor="middle" x="931" y="-243.8" font-family="Times,serif" font-size="14.00">PageModule</text>
</g>
<!-- PageModule&#45;&gt;AppModule -->
<g id="edge3" class="edge">
<title>PageModule&#45;&gt;AppModule</title>
<path fill="none" stroke="black" d="M931,-266.11C931,-285.34 931,-313 931,-313 931,-313 1072.9,-313 1072.9,-313"/>
<polygon fill="black" stroke="black" points="1072.9,-316.5 1082.9,-313 1072.9,-309.5 1072.9,-316.5"/>
</g>
<!-- PageComponent  -->
<g id="node25" class="node">
<title>PageComponent </title>
<polygon fill="#fb8072" stroke="black" points="476.04,-190 363.96,-190 363.96,-154 476.04,-154 476.04,-190"/>
<text text-anchor="middle" x="420" y="-167.8" font-family="Times,serif" font-size="14.00">PageComponent </text>
</g>
<!-- PageModule&#45;&gt;PageComponent  -->
<g id="edge24" class="edge">
<title>PageModule&#45;&gt;PageComponent </title>
<path fill="none" stroke="black" stroke-dasharray="5,2" d="M887.43,-248C763.86,-248 420,-248 420,-248 420,-248 420,-200.01 420,-200.01"/>
<polygon fill="black" stroke="black" points="423.5,-200.01 420,-190.01 416.5,-200.01 423.5,-200.01"/>
</g>
<!-- PageMentionsComponent  -->
<g id="node26" class="node">
<title>PageMentionsComponent </title>
<polygon fill="#fb8072" stroke="black" points="346.43,-190 181.57,-190 181.57,-154 346.43,-154 346.43,-190"/>
<text text-anchor="middle" x="264" y="-167.8" font-family="Times,serif" font-size="14.00">PageMentionsComponent </text>
</g>
<!-- PageModule&#45;&gt;PageMentionsComponent  -->
<g id="edge25" class="edge">
<title>PageModule&#45;&gt;PageMentionsComponent </title>
<path fill="none" stroke="black" stroke-dasharray="5,2" d="M887.49,-254C739.4,-254 264,-254 264,-254 264,-254 264,-200.2 264,-200.2"/>
<polygon fill="black" stroke="black" points="267.5,-200.2 264,-190.2 260.5,-200.2 267.5,-200.2"/>
</g>
<!-- ServicesModule -->
<g id="node5" class="node">
<title>ServicesModule</title>
<polygon fill="#8dd3c7" stroke="black" points="1246.47,-266 1243.47,-270 1222.47,-270 1219.47,-266 1139.53,-266 1139.53,-230 1246.47,-230 1246.47,-266"/>
<text text-anchor="middle" x="1193" y="-243.8" font-family="Times,serif" font-size="14.00">ServicesModule</text>
</g>
<!-- ServicesModule&#45;&gt;AppModule -->
<g id="edge4" class="edge">
<title>ServicesModule&#45;&gt;AppModule</title>
<path fill="none" stroke="black" d="M1153.17,-266.11C1153.17,-266.11 1153.17,-284.99 1153.17,-284.99"/>
<polygon fill="black" stroke="black" points="1149.67,-284.99 1153.17,-294.99 1156.67,-284.99 1149.67,-284.99"/>
</g>
<!-- LoginComponent -->
<g id="node7" class="node">
<title>LoginComponent</title>
<polygon fill="#ffffb3" stroke="black" points="141.28,-122 26.72,-122 26.72,-86 141.28,-86 141.28,-122"/>
<text text-anchor="middle" x="84" y="-99.8" font-family="Times,serif" font-size="14.00">LoginComponent</text>
</g>
<!-- LoginModule -->
<g id="node8" class="node">
<title>LoginModule</title>
<polygon fill="#8dd3c7" stroke="black" points="130.49,-190 127.49,-194 106.49,-194 103.49,-190 37.51,-190 37.51,-154 130.49,-154 130.49,-190"/>
<text text-anchor="middle" x="84" y="-167.8" font-family="Times,serif" font-size="14.00">LoginModule</text>
</g>
<!-- LoginComponent&#45;&gt;LoginModule -->
<g id="edge6" class="edge">
<title>LoginComponent&#45;&gt;LoginModule</title>
<path fill="none" stroke="black" d="M84,-122.22C84,-122.22 84,-143.73 84,-143.73"/>
<polygon fill="black" stroke="black" points="80.5,-143.73 84,-153.73 87.5,-143.73 80.5,-143.73"/>
</g>
<!-- LoginModule&#45;&gt;PageModule -->
<g id="edge21" class="edge">
<title>LoginModule&#45;&gt;PageModule</title>
<path fill="none" stroke="black" d="M130.63,-172C147.2,-172 161.84,-172 161.84,-172 161.84,-172 161.84,-260 161.84,-260 161.84,-260 877.72,-260 877.72,-260"/>
<polygon fill="black" stroke="black" points="877.72,-263.5 887.72,-260 877.72,-256.5 877.72,-263.5"/>
</g>
<!-- LoginComponent  -->
<g id="node9" class="node">
<title>LoginComponent </title>
<polygon fill="#fb8072" stroke="black" points="142.28,-266 23.72,-266 23.72,-230 142.28,-230 142.28,-266"/>
<text text-anchor="middle" x="83" y="-243.8" font-family="Times,serif" font-size="14.00">LoginComponent </text>
</g>
<!-- LoginModule&#45;&gt;LoginComponent  -->
<g id="edge7" class="edge">
<title>LoginModule&#45;&gt;LoginComponent </title>
<path fill="none" stroke="black" stroke-dasharray="5,2" d="M84,-190.01C84,-190.01 84,-219.85 84,-219.85"/>
<polygon fill="black" stroke="black" points="80.5,-219.85 84,-229.85 87.5,-219.85 80.5,-219.85"/>
</g>
<!-- MentionComponent -->
<g id="node10" class="node">
<title>MentionComponent</title>
<polygon fill="#ffffb3" stroke="black" points="1627.27,-122 1498.73,-122 1498.73,-86 1627.27,-86 1627.27,-122"/>
<text text-anchor="middle" x="1563" y="-99.8" font-family="Times,serif" font-size="14.00">MentionComponent</text>
</g>
<!-- MentionModule -->
<g id="node11" class="node">
<title>MentionModule</title>
<polygon fill="#8dd3c7" stroke="black" points="1616.49,-190 1613.49,-194 1592.49,-194 1589.49,-190 1509.51,-190 1509.51,-154 1616.49,-154 1616.49,-190"/>
<text text-anchor="middle" x="1563" y="-167.8" font-family="Times,serif" font-size="14.00">MentionModule</text>
</g>
<!-- MentionComponent&#45;&gt;MentionModule -->
<g id="edge8" class="edge">
<title>MentionComponent&#45;&gt;MentionModule</title>
<path fill="none" stroke="black" d="M1563,-122.22C1563,-122.22 1563,-143.73 1563,-143.73"/>
<polygon fill="black" stroke="black" points="1559.5,-143.73 1563,-153.73 1566.5,-143.73 1559.5,-143.73"/>
</g>
<!-- MentionModule&#45;&gt;PageModule -->
<g id="edge22" class="edge">
<title>MentionModule&#45;&gt;PageModule</title>
<path fill="none" stroke="black" d="M1545.17,-190.04C1545.17,-202.56 1545.17,-217 1545.17,-217 1545.17,-217 949.59,-217 949.59,-217 949.59,-217 949.59,-219.97 949.59,-219.97"/>
<polygon fill="black" stroke="black" points="946.09,-219.97 949.59,-229.97 953.09,-219.97 946.09,-219.97"/>
</g>
<!-- MentionComponent  -->
<g id="node12" class="node">
<title>MentionComponent </title>
<polygon fill="#fb8072" stroke="black" points="1630.27,-266 1497.73,-266 1497.73,-230 1630.27,-230 1630.27,-266"/>
<text text-anchor="middle" x="1564" y="-243.8" font-family="Times,serif" font-size="14.00">MentionComponent </text>
</g>
<!-- MentionModule&#45;&gt;MentionComponent  -->
<g id="edge9" class="edge">
<title>MentionModule&#45;&gt;MentionComponent </title>
<path fill="none" stroke="black" stroke-dasharray="5,2" d="M1580.83,-190.01C1580.83,-190.01 1580.83,-219.85 1580.83,-219.85"/>
<polygon fill="black" stroke="black" points="1577.33,-219.85 1580.83,-229.85 1584.33,-219.85 1577.33,-219.85"/>
</g>
<!-- MessageComponent -->
<g id="node13" class="node">
<title>MessageComponent</title>
<polygon fill="#ffffb3" stroke="black" points="1970.31,-122 1839.69,-122 1839.69,-86 1970.31,-86 1970.31,-122"/>
<text text-anchor="middle" x="1905" y="-99.8" font-family="Times,serif" font-size="14.00">MessageComponent</text>
</g>
<!-- MessageModule -->
<g id="node17" class="node">
<title>MessageModule</title>
<polygon fill="#8dd3c7" stroke="black" points="1959.03,-190 1956.03,-194 1935.03,-194 1932.03,-190 1850.97,-190 1850.97,-154 1959.03,-154 1959.03,-190"/>
<text text-anchor="middle" x="1905" y="-167.8" font-family="Times,serif" font-size="14.00">MessageModule</text>
</g>
<!-- MessageComponent&#45;&gt;MessageModule -->
<g id="edge10" class="edge">
<title>MessageComponent&#45;&gt;MessageModule</title>
<path fill="none" stroke="black" d="M1905,-122.22C1905,-122.22 1905,-143.73 1905,-143.73"/>
<polygon fill="black" stroke="black" points="1901.5,-143.73 1905,-153.73 1908.5,-143.73 1901.5,-143.73"/>
</g>
<!-- MessageListComponent -->
<g id="node14" class="node">
<title>MessageListComponent</title>
<polygon fill="#ffffb3" stroke="black" points="1822.09,-122 1669.91,-122 1669.91,-86 1822.09,-86 1822.09,-122"/>
<text text-anchor="middle" x="1746" y="-99.8" font-family="Times,serif" font-size="14.00">MessageListComponent</text>
</g>
<!-- MessageListComponent&#45;&gt;MessageModule -->
<g id="edge11" class="edge">
<title>MessageListComponent&#45;&gt;MessageModule</title>
<path fill="none" stroke="black" d="M1746,-122.22C1746,-142.37 1746,-172 1746,-172 1746,-172 1840.73,-172 1840.73,-172"/>
<polygon fill="black" stroke="black" points="1840.73,-175.5 1850.73,-172 1840.73,-168.5 1840.73,-175.5"/>
</g>
<!-- MessageListItemComponent -->
<g id="node15" class="node">
<title>MessageListItemComponent</title>
<polygon fill="#ffffb3" stroke="black" points="2350.74,-122 2173.26,-122 2173.26,-86 2350.74,-86 2350.74,-122"/>
<text text-anchor="middle" x="2262" y="-99.8" font-family="Times,serif" font-size="14.00">MessageListItemComponent</text>
</g>
<!-- MessageListItemComponent&#45;&gt;MessageModule -->
<g id="edge12" class="edge">
<title>MessageListItemComponent&#45;&gt;MessageModule</title>
<path fill="none" stroke="black" d="M2262,-122.29C2262,-144.21 2262,-178 2262,-178 2262,-178 1969.22,-178 1969.22,-178"/>
<polygon fill="black" stroke="black" points="1969.22,-174.5 1959.22,-178 1969.22,-181.5 1969.22,-174.5"/>
</g>
<!-- MessageWriterComponent -->
<g id="node16" class="node">
<title>MessageWriterComponent</title>
<polygon fill="#ffffb3" stroke="black" points="2155.34,-122 1988.66,-122 1988.66,-86 2155.34,-86 2155.34,-122"/>
<text text-anchor="middle" x="2072" y="-99.8" font-family="Times,serif" font-size="14.00">MessageWriterComponent</text>
</g>
<!-- MessageWriterComponent&#45;&gt;MessageModule -->
<g id="edge13" class="edge">
<title>MessageWriterComponent&#45;&gt;MessageModule</title>
<path fill="none" stroke="black" d="M2072,-122.27C2072,-140.56 2072,-166 2072,-166 2072,-166 1969.22,-166 1969.22,-166"/>
<polygon fill="black" stroke="black" points="1969.22,-162.5 1959.22,-166 1969.22,-169.5 1969.22,-162.5"/>
</g>
<!-- MessageModule&#45;&gt;PageModule -->
<g id="edge23" class="edge">
<title>MessageModule&#45;&gt;PageModule</title>
<path fill="none" stroke="black" d="M1886.91,-190.19C1886.91,-205.18 1886.91,-224 1886.91,-224 1886.91,-224 961.99,-224 961.99,-224 961.99,-224 961.99,-224.58 961.99,-224.58"/>
<polygon fill="black" stroke="black" points="958.49,-219.81 961.99,-229.81 965.49,-219.81 958.49,-219.81"/>
</g>
<!-- MessageComponent  -->
<g id="node18" class="node">
<title>MessageComponent </title>
<polygon fill="#fb8072" stroke="black" points="1971.81,-266 1838.19,-266 1838.19,-230 1971.81,-230 1971.81,-266"/>
<text text-anchor="middle" x="1905" y="-243.8" font-family="Times,serif" font-size="14.00">MessageComponent </text>
</g>
<!-- MessageModule&#45;&gt;MessageComponent  -->
<g id="edge14" class="edge">
<title>MessageModule&#45;&gt;MessageComponent </title>
<path fill="none" stroke="black" stroke-dasharray="5,2" d="M1923.09,-190.01C1923.09,-190.01 1923.09,-219.85 1923.09,-219.85"/>
<polygon fill="black" stroke="black" points="1919.59,-219.85 1923.09,-229.85 1926.59,-219.85 1919.59,-219.85"/>
</g>
<!-- PageComponent -->
<g id="node19" class="node">
<title>PageComponent</title>
<polygon fill="#ffffb3" stroke="black" points="1458.05,-190 1349.95,-190 1349.95,-154 1458.05,-154 1458.05,-190"/>
<text text-anchor="middle" x="1404" y="-167.8" font-family="Times,serif" font-size="14.00">PageComponent</text>
</g>
<!-- PageComponent&#45;&gt;PageModule -->
<g id="edge15" class="edge">
<title>PageComponent&#45;&gt;PageModule</title>
<path fill="none" stroke="black" d="M1362.72,-190.11C1362.72,-199.9 1362.72,-210 1362.72,-210 1362.72,-210 937.2,-210 937.2,-210 937.2,-210 937.2,-219.89 937.2,-219.89"/>
<polygon fill="black" stroke="black" points="933.7,-219.89 937.2,-229.89 940.7,-219.89 933.7,-219.89"/>
</g>
<!-- PageFooterComponent -->
<g id="node20" class="node">
<title>PageFooterComponent</title>
<polygon fill="#ffffb3" stroke="black" points="1331.59,-190 1186.41,-190 1186.41,-154 1331.59,-154 1331.59,-190"/>
<text text-anchor="middle" x="1259" y="-167.8" font-family="Times,serif" font-size="14.00">PageFooterComponent</text>
</g>
<!-- PageFooterComponent&#45;&gt;PageModule -->
<g id="edge16" class="edge">
<title>PageFooterComponent&#45;&gt;PageModule</title>
<path fill="none" stroke="black" d="M1216.47,-190.24C1216.47,-197.43 1216.47,-204 1216.47,-204 1216.47,-204 924.8,-204 924.8,-204 924.8,-204 924.8,-219.85 924.8,-219.85"/>
<polygon fill="black" stroke="black" points="921.3,-219.85 924.8,-229.85 928.3,-219.85 921.3,-219.85"/>
</g>
<!-- PageHeaderComponent -->
<g id="node21" class="node">
<title>PageHeaderComponent</title>
<polygon fill="#ffffb3" stroke="black" points="1168.46,-190 1019.54,-190 1019.54,-154 1168.46,-154 1168.46,-190"/>
<text text-anchor="middle" x="1094" y="-167.8" font-family="Times,serif" font-size="14.00">PageHeaderComponent</text>
</g>
<!-- PageHeaderComponent&#45;&gt;PageModule -->
<g id="edge17" class="edge">
<title>PageHeaderComponent&#45;&gt;PageModule</title>
<path fill="none" stroke="black" d="M1070.45,-190.17C1070.45,-194.05 1070.45,-197 1070.45,-197 1070.45,-197 912.41,-197 912.41,-197 912.41,-197 912.41,-219.88 912.41,-219.88"/>
<polygon fill="black" stroke="black" points="908.91,-219.88 912.41,-229.88 915.91,-219.88 908.91,-219.88"/>
</g>
<!-- PageLoginComponent -->
<g id="node22" class="node">
<title>PageLoginComponent</title>
<polygon fill="#ffffb3" stroke="black" points="1001.99,-190 860.01,-190 860.01,-154 1001.99,-154 1001.99,-190"/>
<text text-anchor="middle" x="931" y="-167.8" font-family="Times,serif" font-size="14.00">PageLoginComponent</text>
</g>
<!-- PageLoginComponent&#45;&gt;PageModule -->
<g id="edge18" class="edge">
<title>PageLoginComponent&#45;&gt;PageModule</title>
<path fill="none" stroke="black" d="M900.01,-190.01C900.01,-190.01 900.01,-219.85 900.01,-219.85"/>
<polygon fill="black" stroke="black" points="896.51,-219.85 900.01,-229.85 903.51,-219.85 896.51,-219.85"/>
</g>
<!-- PageMentionsComponent -->
<g id="node23" class="node">
<title>PageMentionsComponent</title>
<polygon fill="#ffffb3" stroke="black" points="841.93,-190 680.07,-190 680.07,-154 841.93,-154 841.93,-190"/>
<text text-anchor="middle" x="761" y="-167.8" font-family="Times,serif" font-size="14.00">PageMentionsComponent</text>
</g>
<!-- PageMentionsComponent&#45;&gt;PageModule -->
<g id="edge19" class="edge">
<title>PageMentionsComponent&#45;&gt;PageModule</title>
<path fill="none" stroke="black" d="M761,-190.17C761,-209.09 761,-236 761,-236 761,-236 877.66,-236 877.66,-236"/>
<polygon fill="black" stroke="black" points="877.66,-239.5 887.66,-236 877.66,-232.5 877.66,-239.5"/>
</g>
<!-- PageMessagesComponent -->
<g id="node24" class="node">
<title>PageMessagesComponent</title>
<polygon fill="#ffffb3" stroke="black" points="662.47,-190 499.53,-190 499.53,-154 662.47,-154 662.47,-190"/>
<text text-anchor="middle" x="581" y="-167.8" font-family="Times,serif" font-size="14.00">PageMessagesComponent</text>
</g>
<!-- PageMessagesComponent&#45;&gt;PageModule -->
<g id="edge20" class="edge">
<title>PageMessagesComponent&#45;&gt;PageModule</title>
<path fill="none" stroke="black" d="M581,-190.03C581,-210.77 581,-242 581,-242 581,-242 877.73,-242 877.73,-242"/>
<polygon fill="black" stroke="black" points="877.73,-245.5 887.73,-242 877.73,-238.5 877.73,-245.5"/>
</g>
<!-- SharedButtonComponent -->
<g id="node27" class="node">
<title>SharedButtonComponent</title>
<polygon fill="#ffffb3" stroke="black" points="2551.32,-122 2392.68,-122 2392.68,-86 2551.32,-86 2551.32,-122"/>
<text text-anchor="middle" x="2472" y="-99.8" font-family="Times,serif" font-size="14.00">SharedButtonComponent</text>
</g>
<!-- SharedModule -->
<g id="node28" class="node">
<title>SharedModule</title>
<polygon fill="#8dd3c7" stroke="black" points="2521.42,-190 2518.42,-194 2497.42,-194 2494.42,-190 2422.58,-190 2422.58,-154 2521.42,-154 2521.42,-190"/>
<text text-anchor="middle" x="2472" y="-167.8" font-family="Times,serif" font-size="14.00">SharedModule</text>
</g>
<!-- SharedButtonComponent&#45;&gt;SharedModule -->
<g id="edge26" class="edge">
<title>SharedButtonComponent&#45;&gt;SharedModule</title>
<path fill="none" stroke="black" d="M2472,-122.22C2472,-122.22 2472,-143.73 2472,-143.73"/>
<polygon fill="black" stroke="black" points="2468.5,-143.73 2472,-153.73 2475.5,-143.73 2468.5,-143.73"/>
</g>
<!-- SharedButtonComponent  -->
<g id="node29" class="node">
<title>SharedButtonComponent </title>
<polygon fill="#fb8072" stroke="black" points="2552.82,-266 2391.18,-266 2391.18,-230 2552.82,-230 2552.82,-266"/>
<text text-anchor="middle" x="2472" y="-243.8" font-family="Times,serif" font-size="14.00">SharedButtonComponent </text>
</g>
<!-- SharedModule&#45;&gt;SharedButtonComponent  -->
<g id="edge27" class="edge">
<title>SharedModule&#45;&gt;SharedButtonComponent </title>
<path fill="none" stroke="black" stroke-dasharray="5,2" d="M2472,-190.01C2472,-190.01 2472,-219.85 2472,-219.85"/>
<polygon fill="black" stroke="black" points="2468.5,-219.85 2472,-229.85 2475.5,-219.85 2468.5,-219.85"/>
</g>
</g>
</svg>
